<mxfile host="app.diagrams.net" modified="2023-08-27T10:48:07.915Z" agent="Mozilla/5.0 (Windows NT 10.0; Win64; x64) AppleWebKit/537.36 (KHTML, like Gecko) Chrome/116.0.0.0 Safari/537.36 Edg/116.0.1938.62" etag="Rfprica07i2KvxDy4nc_" version="21.6.9" type="github">
  <diagram name="페이지-1" id="ZJbQIICtt_H6M7Sho-WK">
    <mxGraphModel dx="2384" dy="116" grid="0" gridSize="10" guides="1" tooltips="1" connect="1" arrows="1" fold="1" page="0" pageScale="1" pageWidth="827" pageHeight="1169" math="0" shadow="0">
      <root>
        <mxCell id="0" />
        <mxCell id="1" parent="0" />
        <mxCell id="aAnmiJ6Gdb3zotKeNEK4-26" value="DD-05. DA-01." style="shape=umlFrame;whiteSpace=wrap;html=1;pointerEvents=0;recursiveResize=0;container=0;collapsible=0;width=160;hachureGap=4;fontFamily=Architects Daughter;fontSource=https%3A%2F%2Ffonts.googleapis.com%2Fcss%3Ffamily%3DArchitects%2BDaughter;fontSize=20;movable=1;resizable=1;rotatable=1;deletable=1;editable=1;locked=0;connectable=1;" vertex="1" parent="1">
          <mxGeometry x="56" y="1330" width="948" height="401" as="geometry" />
        </mxCell>
        <mxCell id="aAnmiJ6Gdb3zotKeNEK4-27" style="edgeStyle=none;shape=connector;rounded=0;sketch=1;hachureGap=4;jiggle=2;curveFitting=1;orthogonalLoop=1;jettySize=auto;html=1;entryX=0.5;entryY=0;entryDx=0;entryDy=0;entryPerimeter=0;labelBackgroundColor=default;strokeColor=default;fontFamily=Architects Daughter;fontSource=https%3A%2F%2Ffonts.googleapis.com%2Fcss%3Ffamily%3DArchitects%2BDaughter;fontSize=16;fontColor=default;endArrow=classic;" edge="1" parent="1" source="aAnmiJ6Gdb3zotKeNEK4-28" target="aAnmiJ6Gdb3zotKeNEK4-47">
          <mxGeometry relative="1" as="geometry" />
        </mxCell>
        <mxCell id="aAnmiJ6Gdb3zotKeNEK4-28" value="DISC" style="shape=cylinder3;whiteSpace=wrap;html=1;boundedLbl=1;backgroundOutline=1;size=15;sketch=1;hachureGap=4;jiggle=2;curveFitting=1;fontFamily=Architects Daughter;fontSource=https%3A%2F%2Ffonts.googleapis.com%2Fcss%3Ffamily%3DArchitects%2BDaughter;fontSize=20;fillColor=#ffe6cc;strokeColor=#d79b00;" vertex="1" parent="1">
          <mxGeometry x="868" y="1410" width="98" height="80" as="geometry" />
        </mxCell>
        <mxCell id="aAnmiJ6Gdb3zotKeNEK4-29" style="rounded=0;sketch=1;hachureGap=4;jiggle=2;curveFitting=1;orthogonalLoop=1;jettySize=auto;html=1;exitX=0;exitY=0;exitDx=0;exitDy=30;exitPerimeter=0;entryX=0;entryY=0;entryDx=137;entryDy=50;entryPerimeter=0;fontFamily=Architects Daughter;fontSource=https%3A%2F%2Ffonts.googleapis.com%2Fcss%3Ffamily%3DArchitects%2BDaughter;fontSize=16;" edge="1" parent="1" source="aAnmiJ6Gdb3zotKeNEK4-32" target="aAnmiJ6Gdb3zotKeNEK4-35">
          <mxGeometry relative="1" as="geometry" />
        </mxCell>
        <mxCell id="aAnmiJ6Gdb3zotKeNEK4-30" style="edgeStyle=none;shape=connector;rounded=0;sketch=1;hachureGap=4;jiggle=2;curveFitting=1;orthogonalLoop=1;jettySize=auto;html=1;entryX=0;entryY=0;entryDx=137;entryDy=50;entryPerimeter=0;labelBackgroundColor=default;strokeColor=default;fontFamily=Architects Daughter;fontSource=https%3A%2F%2Ffonts.googleapis.com%2Fcss%3Ffamily%3DArchitects%2BDaughter;fontSize=16;fontColor=default;endArrow=classic;" edge="1" parent="1" source="aAnmiJ6Gdb3zotKeNEK4-32" target="aAnmiJ6Gdb3zotKeNEK4-43">
          <mxGeometry relative="1" as="geometry" />
        </mxCell>
        <mxCell id="aAnmiJ6Gdb3zotKeNEK4-31" style="edgeStyle=none;shape=connector;rounded=0;sketch=1;hachureGap=4;jiggle=2;curveFitting=1;orthogonalLoop=1;jettySize=auto;html=1;entryX=0;entryY=0;entryDx=137;entryDy=50;entryPerimeter=0;labelBackgroundColor=default;strokeColor=default;fontFamily=Architects Daughter;fontSource=https%3A%2F%2Ffonts.googleapis.com%2Fcss%3Ffamily%3DArchitects%2BDaughter;fontSize=16;fontColor=default;endArrow=classic;exitX=-0.022;exitY=0.665;exitDx=0;exitDy=0;exitPerimeter=0;" edge="1" parent="1" source="aAnmiJ6Gdb3zotKeNEK4-32" target="aAnmiJ6Gdb3zotKeNEK4-46">
          <mxGeometry relative="1" as="geometry" />
        </mxCell>
        <mxCell id="aAnmiJ6Gdb3zotKeNEK4-32" value="LB" style="shape=cube;whiteSpace=wrap;html=1;boundedLbl=1;backgroundOutline=1;darkOpacity=0.05;darkOpacity2=0.1;sketch=1;hachureGap=4;jiggle=2;curveFitting=1;fontFamily=Architects Daughter;fontSource=https%3A%2F%2Ffonts.googleapis.com%2Fcss%3Ffamily%3DArchitects%2BDaughter;fontSize=20;direction=east;flipH=1;fillColor=#d5e8d4;strokeColor=#82b366;" vertex="1" parent="1">
          <mxGeometry x="102" y="1500" width="120" height="80" as="geometry" />
        </mxCell>
        <mxCell id="aAnmiJ6Gdb3zotKeNEK4-33" style="edgeStyle=none;shape=connector;rounded=0;sketch=1;hachureGap=4;jiggle=2;curveFitting=1;orthogonalLoop=1;jettySize=auto;html=1;entryX=1.009;entryY=0.44;entryDx=0;entryDy=0;entryPerimeter=0;labelBackgroundColor=default;strokeColor=default;fontFamily=Architects Daughter;fontSource=https%3A%2F%2Ffonts.googleapis.com%2Fcss%3Ffamily%3DArchitects%2BDaughter;fontSize=16;fontColor=default;endArrow=classic;exitX=0;exitY=0;exitDx=0;exitDy=30;exitPerimeter=0;" edge="1" parent="1" source="aAnmiJ6Gdb3zotKeNEK4-35" target="aAnmiJ6Gdb3zotKeNEK4-37">
          <mxGeometry relative="1" as="geometry" />
        </mxCell>
        <mxCell id="aAnmiJ6Gdb3zotKeNEK4-34" style="edgeStyle=none;shape=connector;rounded=0;sketch=1;hachureGap=4;jiggle=2;curveFitting=1;orthogonalLoop=1;jettySize=auto;html=1;entryX=1.029;entryY=0.444;entryDx=0;entryDy=0;entryPerimeter=0;labelBackgroundColor=default;strokeColor=default;fontFamily=Architects Daughter;fontSource=https%3A%2F%2Ffonts.googleapis.com%2Fcss%3Ffamily%3DArchitects%2BDaughter;fontSize=16;fontColor=default;endArrow=classic;" edge="1" parent="1" source="aAnmiJ6Gdb3zotKeNEK4-35" target="aAnmiJ6Gdb3zotKeNEK4-40">
          <mxGeometry relative="1" as="geometry" />
        </mxCell>
        <mxCell id="aAnmiJ6Gdb3zotKeNEK4-35" value="Server#1" style="shape=cube;whiteSpace=wrap;html=1;boundedLbl=1;backgroundOutline=1;darkOpacity=0.05;darkOpacity2=0.1;sketch=1;hachureGap=4;jiggle=2;curveFitting=1;fontFamily=Architects Daughter;fontSource=https%3A%2F%2Ffonts.googleapis.com%2Fcss%3Ffamily%3DArchitects%2BDaughter;fontSize=20;direction=east;flipH=1;fillColor=#dae8fc;strokeColor=#6c8ebf;" vertex="1" parent="1">
          <mxGeometry x="387" y="1364" width="137" height="80" as="geometry" />
        </mxCell>
        <mxCell id="aAnmiJ6Gdb3zotKeNEK4-36" style="edgeStyle=none;shape=connector;rounded=0;sketch=1;hachureGap=4;jiggle=2;curveFitting=1;orthogonalLoop=1;jettySize=auto;html=1;entryX=0;entryY=0.5;entryDx=0;entryDy=0;entryPerimeter=0;labelBackgroundColor=default;strokeColor=default;fontFamily=Architects Daughter;fontSource=https%3A%2F%2Ffonts.googleapis.com%2Fcss%3Ffamily%3DArchitects%2BDaughter;fontSize=16;fontColor=default;endArrow=classic;" edge="1" parent="1" source="aAnmiJ6Gdb3zotKeNEK4-37" target="aAnmiJ6Gdb3zotKeNEK4-28">
          <mxGeometry relative="1" as="geometry" />
        </mxCell>
        <mxCell id="aAnmiJ6Gdb3zotKeNEK4-37" value="DB&lt;br&gt;(Read)" style="shape=cube;whiteSpace=wrap;html=1;boundedLbl=1;backgroundOutline=1;darkOpacity=0.05;darkOpacity2=0.1;sketch=1;hachureGap=4;jiggle=2;curveFitting=1;fontFamily=Architects Daughter;fontSource=https%3A%2F%2Ffonts.googleapis.com%2Fcss%3Ffamily%3DArchitects%2BDaughter;fontSize=20;direction=east;flipH=1;fillColor=#fff2cc;strokeColor=#d6b656;" vertex="1" parent="1">
          <mxGeometry x="629" y="1410" width="120" height="80" as="geometry" />
        </mxCell>
        <mxCell id="aAnmiJ6Gdb3zotKeNEK4-38" style="edgeStyle=none;shape=connector;rounded=0;sketch=1;hachureGap=4;jiggle=2;curveFitting=1;orthogonalLoop=1;jettySize=auto;html=1;entryX=0;entryY=0.5;entryDx=0;entryDy=0;entryPerimeter=0;labelBackgroundColor=default;strokeColor=default;fontFamily=Architects Daughter;fontSource=https%3A%2F%2Ffonts.googleapis.com%2Fcss%3Ffamily%3DArchitects%2BDaughter;fontSize=16;fontColor=default;endArrow=classic;" edge="1" parent="1" source="aAnmiJ6Gdb3zotKeNEK4-40" target="aAnmiJ6Gdb3zotKeNEK4-47">
          <mxGeometry relative="1" as="geometry" />
        </mxCell>
        <mxCell id="aAnmiJ6Gdb3zotKeNEK4-39" style="edgeStyle=none;shape=connector;rounded=0;sketch=1;hachureGap=4;jiggle=2;curveFitting=1;orthogonalLoop=1;jettySize=auto;html=1;entryX=0;entryY=0;entryDx=70;entryDy=80;entryPerimeter=0;labelBackgroundColor=default;strokeColor=default;fontFamily=Architects Daughter;fontSource=https%3A%2F%2Ffonts.googleapis.com%2Fcss%3Ffamily%3DArchitects%2BDaughter;fontSize=16;fontColor=default;endArrow=classic;exitX=0.587;exitY=-0.002;exitDx=0;exitDy=0;exitPerimeter=0;startArrow=classic;startFill=1;" edge="1" parent="1" source="aAnmiJ6Gdb3zotKeNEK4-40" target="aAnmiJ6Gdb3zotKeNEK4-37">
          <mxGeometry relative="1" as="geometry" />
        </mxCell>
        <mxCell id="aAnmiJ6Gdb3zotKeNEK4-40" value="DB&lt;br&gt;(Write)" style="shape=cube;whiteSpace=wrap;html=1;boundedLbl=1;backgroundOutline=1;darkOpacity=0.05;darkOpacity2=0.1;sketch=1;hachureGap=4;jiggle=2;curveFitting=1;fontFamily=Architects Daughter;fontSource=https%3A%2F%2Ffonts.googleapis.com%2Fcss%3Ffamily%3DArchitects%2BDaughter;fontSize=20;direction=east;flipH=1;fillColor=#fff2cc;strokeColor=#d6b656;" vertex="1" parent="1">
          <mxGeometry x="629" y="1587" width="120" height="80" as="geometry" />
        </mxCell>
        <mxCell id="aAnmiJ6Gdb3zotKeNEK4-41" style="edgeStyle=none;shape=connector;rounded=0;sketch=1;hachureGap=4;jiggle=2;curveFitting=1;orthogonalLoop=1;jettySize=auto;html=1;entryX=0;entryY=0;entryDx=120;entryDy=50;entryPerimeter=0;labelBackgroundColor=default;strokeColor=default;fontFamily=Architects Daughter;fontSource=https%3A%2F%2Ffonts.googleapis.com%2Fcss%3Ffamily%3DArchitects%2BDaughter;fontSize=16;fontColor=default;endArrow=classic;exitX=0;exitY=0;exitDx=0;exitDy=30;exitPerimeter=0;" edge="1" parent="1" source="aAnmiJ6Gdb3zotKeNEK4-43" target="aAnmiJ6Gdb3zotKeNEK4-37">
          <mxGeometry relative="1" as="geometry" />
        </mxCell>
        <mxCell id="aAnmiJ6Gdb3zotKeNEK4-42" style="edgeStyle=none;shape=connector;rounded=0;sketch=1;hachureGap=4;jiggle=2;curveFitting=1;orthogonalLoop=1;jettySize=auto;html=1;entryX=0;entryY=0;entryDx=120.00000000000001;entryDy=50;entryPerimeter=0;labelBackgroundColor=default;strokeColor=default;fontFamily=Architects Daughter;fontSource=https%3A%2F%2Ffonts.googleapis.com%2Fcss%3Ffamily%3DArchitects%2BDaughter;fontSize=16;fontColor=default;endArrow=classic;" edge="1" parent="1" source="aAnmiJ6Gdb3zotKeNEK4-43" target="aAnmiJ6Gdb3zotKeNEK4-40">
          <mxGeometry relative="1" as="geometry" />
        </mxCell>
        <mxCell id="aAnmiJ6Gdb3zotKeNEK4-43" value="Server#2" style="shape=cube;whiteSpace=wrap;html=1;boundedLbl=1;backgroundOutline=1;darkOpacity=0.05;darkOpacity2=0.1;sketch=1;hachureGap=4;jiggle=2;curveFitting=1;fontFamily=Architects Daughter;fontSource=https%3A%2F%2Ffonts.googleapis.com%2Fcss%3Ffamily%3DArchitects%2BDaughter;fontSize=20;direction=east;flipH=1;fillColor=#dae8fc;strokeColor=#6c8ebf;" vertex="1" parent="1">
          <mxGeometry x="387" y="1498" width="137" height="80" as="geometry" />
        </mxCell>
        <mxCell id="aAnmiJ6Gdb3zotKeNEK4-44" style="edgeStyle=none;shape=connector;rounded=0;sketch=1;hachureGap=4;jiggle=2;curveFitting=1;orthogonalLoop=1;jettySize=auto;html=1;labelBackgroundColor=default;strokeColor=default;fontFamily=Architects Daughter;fontSource=https%3A%2F%2Ffonts.googleapis.com%2Fcss%3Ffamily%3DArchitects%2BDaughter;fontSize=16;fontColor=default;endArrow=classic;exitX=0;exitY=0;exitDx=0;exitDy=30;exitPerimeter=0;" edge="1" parent="1" source="aAnmiJ6Gdb3zotKeNEK4-46">
          <mxGeometry relative="1" as="geometry">
            <mxPoint x="628" y="1474" as="targetPoint" />
            <mxPoint x="483" y="1671" as="sourcePoint" />
          </mxGeometry>
        </mxCell>
        <mxCell id="aAnmiJ6Gdb3zotKeNEK4-45" style="edgeStyle=none;shape=connector;rounded=0;sketch=1;hachureGap=4;jiggle=2;curveFitting=1;orthogonalLoop=1;jettySize=auto;html=1;entryX=1.014;entryY=0.759;entryDx=0;entryDy=0;entryPerimeter=0;labelBackgroundColor=default;strokeColor=default;fontFamily=Architects Daughter;fontSource=https%3A%2F%2Ffonts.googleapis.com%2Fcss%3Ffamily%3DArchitects%2BDaughter;fontSize=16;fontColor=default;endArrow=classic;" edge="1" parent="1" source="aAnmiJ6Gdb3zotKeNEK4-46" target="aAnmiJ6Gdb3zotKeNEK4-40">
          <mxGeometry relative="1" as="geometry" />
        </mxCell>
        <mxCell id="aAnmiJ6Gdb3zotKeNEK4-46" value="Server#3" style="shape=cube;whiteSpace=wrap;html=1;boundedLbl=1;backgroundOutline=1;darkOpacity=0.05;darkOpacity2=0.1;sketch=1;hachureGap=4;jiggle=2;curveFitting=1;fontFamily=Architects Daughter;fontSource=https%3A%2F%2Ffonts.googleapis.com%2Fcss%3Ffamily%3DArchitects%2BDaughter;fontSize=20;direction=east;flipH=1;fillColor=#dae8fc;strokeColor=#6c8ebf;" vertex="1" parent="1">
          <mxGeometry x="385" y="1622" width="137" height="80" as="geometry" />
        </mxCell>
        <mxCell id="aAnmiJ6Gdb3zotKeNEK4-47" value="DISC" style="shape=cylinder3;whiteSpace=wrap;html=1;boundedLbl=1;backgroundOutline=1;size=15;sketch=1;hachureGap=4;jiggle=2;curveFitting=1;fontFamily=Architects Daughter;fontSource=https%3A%2F%2Ffonts.googleapis.com%2Fcss%3Ffamily%3DArchitects%2BDaughter;fontSize=20;fillColor=#ffe6cc;strokeColor=#d79b00;" vertex="1" parent="1">
          <mxGeometry x="871" y="1587" width="98" height="80" as="geometry" />
        </mxCell>
        <mxCell id="aAnmiJ6Gdb3zotKeNEK4-48" value="DD-05. DA-02." style="shape=umlFrame;whiteSpace=wrap;html=1;pointerEvents=0;recursiveResize=0;container=0;collapsible=0;width=160;hachureGap=4;fontFamily=Architects Daughter;fontSource=https%3A%2F%2Ffonts.googleapis.com%2Fcss%3Ffamily%3DArchitects%2BDaughter;fontSize=20;movable=1;resizable=1;rotatable=1;deletable=1;editable=1;locked=0;connectable=1;" vertex="1" parent="1">
          <mxGeometry x="62" y="1809" width="948" height="401" as="geometry" />
        </mxCell>
        <mxCell id="aAnmiJ6Gdb3zotKeNEK4-50" value="DISC #1" style="shape=cylinder3;whiteSpace=wrap;html=1;boundedLbl=1;backgroundOutline=1;size=15;sketch=1;hachureGap=4;jiggle=2;curveFitting=1;fontFamily=Architects Daughter;fontSource=https%3A%2F%2Ffonts.googleapis.com%2Fcss%3Ffamily%3DArchitects%2BDaughter;fontSize=20;fillColor=#ffe6cc;strokeColor=#d79b00;" vertex="1" parent="1">
          <mxGeometry x="809" y="1843" width="98" height="80" as="geometry" />
        </mxCell>
        <mxCell id="aAnmiJ6Gdb3zotKeNEK4-51" style="rounded=0;sketch=1;hachureGap=4;jiggle=2;curveFitting=1;orthogonalLoop=1;jettySize=auto;html=1;exitX=0;exitY=0;exitDx=0;exitDy=30;exitPerimeter=0;entryX=0;entryY=0;entryDx=137;entryDy=50;entryPerimeter=0;fontFamily=Architects Daughter;fontSource=https%3A%2F%2Ffonts.googleapis.com%2Fcss%3Ffamily%3DArchitects%2BDaughter;fontSize=16;" edge="1" parent="1" source="aAnmiJ6Gdb3zotKeNEK4-54" target="aAnmiJ6Gdb3zotKeNEK4-57">
          <mxGeometry relative="1" as="geometry" />
        </mxCell>
        <mxCell id="aAnmiJ6Gdb3zotKeNEK4-52" style="edgeStyle=none;shape=connector;rounded=0;sketch=1;hachureGap=4;jiggle=2;curveFitting=1;orthogonalLoop=1;jettySize=auto;html=1;entryX=0;entryY=0;entryDx=137;entryDy=50;entryPerimeter=0;labelBackgroundColor=default;strokeColor=default;fontFamily=Architects Daughter;fontSource=https%3A%2F%2Ffonts.googleapis.com%2Fcss%3Ffamily%3DArchitects%2BDaughter;fontSize=16;fontColor=default;endArrow=classic;" edge="1" parent="1" source="aAnmiJ6Gdb3zotKeNEK4-54" target="aAnmiJ6Gdb3zotKeNEK4-65">
          <mxGeometry relative="1" as="geometry" />
        </mxCell>
        <mxCell id="aAnmiJ6Gdb3zotKeNEK4-53" style="edgeStyle=none;shape=connector;rounded=0;sketch=1;hachureGap=4;jiggle=2;curveFitting=1;orthogonalLoop=1;jettySize=auto;html=1;entryX=0;entryY=0;entryDx=137;entryDy=50;entryPerimeter=0;labelBackgroundColor=default;strokeColor=default;fontFamily=Architects Daughter;fontSource=https%3A%2F%2Ffonts.googleapis.com%2Fcss%3Ffamily%3DArchitects%2BDaughter;fontSize=16;fontColor=default;endArrow=classic;exitX=-0.022;exitY=0.665;exitDx=0;exitDy=0;exitPerimeter=0;" edge="1" parent="1" source="aAnmiJ6Gdb3zotKeNEK4-54" target="aAnmiJ6Gdb3zotKeNEK4-68">
          <mxGeometry relative="1" as="geometry" />
        </mxCell>
        <mxCell id="aAnmiJ6Gdb3zotKeNEK4-54" value="API&lt;br&gt;Gateway" style="shape=cube;whiteSpace=wrap;html=1;boundedLbl=1;backgroundOutline=1;darkOpacity=0.05;darkOpacity2=0.1;sketch=1;hachureGap=4;jiggle=2;curveFitting=1;fontFamily=Architects Daughter;fontSource=https%3A%2F%2Ffonts.googleapis.com%2Fcss%3Ffamily%3DArchitects%2BDaughter;fontSize=20;direction=east;flipH=1;fillColor=#d5e8d4;strokeColor=#82b366;" vertex="1" parent="1">
          <mxGeometry x="168" y="1979" width="120" height="80" as="geometry" />
        </mxCell>
        <mxCell id="aAnmiJ6Gdb3zotKeNEK4-71" style="rounded=0;sketch=1;hachureGap=4;jiggle=2;curveFitting=1;orthogonalLoop=1;jettySize=auto;html=1;entryX=0;entryY=0.5;entryDx=0;entryDy=0;entryPerimeter=0;fontFamily=Architects Daughter;fontSource=https%3A%2F%2Ffonts.googleapis.com%2Fcss%3Ffamily%3DArchitects%2BDaughter;fontSize=16;" edge="1" parent="1" source="aAnmiJ6Gdb3zotKeNEK4-57" target="aAnmiJ6Gdb3zotKeNEK4-50">
          <mxGeometry relative="1" as="geometry" />
        </mxCell>
        <mxCell id="aAnmiJ6Gdb3zotKeNEK4-74" style="rounded=0;sketch=1;hachureGap=4;jiggle=2;curveFitting=1;orthogonalLoop=1;jettySize=auto;html=1;entryX=0;entryY=0;entryDx=58.5;entryDy=0;entryPerimeter=0;fontFamily=Architects Daughter;fontSource=https%3A%2F%2Ffonts.googleapis.com%2Fcss%3Ffamily%3DArchitects%2BDaughter;fontSize=16;" edge="1" parent="1" source="aAnmiJ6Gdb3zotKeNEK4-57" target="aAnmiJ6Gdb3zotKeNEK4-65">
          <mxGeometry relative="1" as="geometry" />
        </mxCell>
        <mxCell id="aAnmiJ6Gdb3zotKeNEK4-75" style="rounded=0;sketch=1;hachureGap=4;jiggle=2;curveFitting=1;orthogonalLoop=1;jettySize=auto;html=1;entryX=0;entryY=0;entryDx=58.5;entryDy=0;entryPerimeter=0;fontFamily=Architects Daughter;fontSource=https%3A%2F%2Ffonts.googleapis.com%2Fcss%3Ffamily%3DArchitects%2BDaughter;fontSize=16;" edge="1" parent="1" source="aAnmiJ6Gdb3zotKeNEK4-57" target="aAnmiJ6Gdb3zotKeNEK4-68">
          <mxGeometry relative="1" as="geometry" />
        </mxCell>
        <mxCell id="aAnmiJ6Gdb3zotKeNEK4-57" value="Service #1" style="shape=cube;whiteSpace=wrap;html=1;boundedLbl=1;backgroundOutline=1;darkOpacity=0.05;darkOpacity2=0.1;sketch=1;hachureGap=4;jiggle=2;curveFitting=1;fontFamily=Architects Daughter;fontSource=https%3A%2F%2Ffonts.googleapis.com%2Fcss%3Ffamily%3DArchitects%2BDaughter;fontSize=20;direction=east;flipH=1;fillColor=#dae8fc;strokeColor=#6c8ebf;" vertex="1" parent="1">
          <mxGeometry x="524" y="1841" width="137" height="80" as="geometry" />
        </mxCell>
        <mxCell id="aAnmiJ6Gdb3zotKeNEK4-72" style="rounded=0;sketch=1;hachureGap=4;jiggle=2;curveFitting=1;orthogonalLoop=1;jettySize=auto;html=1;entryX=0;entryY=0.5;entryDx=0;entryDy=0;entryPerimeter=0;fontFamily=Architects Daughter;fontSource=https%3A%2F%2Ffonts.googleapis.com%2Fcss%3Ffamily%3DArchitects%2BDaughter;fontSize=16;" edge="1" parent="1" source="aAnmiJ6Gdb3zotKeNEK4-65" target="aAnmiJ6Gdb3zotKeNEK4-69">
          <mxGeometry relative="1" as="geometry" />
        </mxCell>
        <mxCell id="aAnmiJ6Gdb3zotKeNEK4-65" value="Service #2" style="shape=cube;whiteSpace=wrap;html=1;boundedLbl=1;backgroundOutline=1;darkOpacity=0.05;darkOpacity2=0.1;sketch=1;hachureGap=4;jiggle=2;curveFitting=1;fontFamily=Architects Daughter;fontSource=https%3A%2F%2Ffonts.googleapis.com%2Fcss%3Ffamily%3DArchitects%2BDaughter;fontSize=20;direction=east;flipH=1;fillColor=#dae8fc;strokeColor=#6c8ebf;" vertex="1" parent="1">
          <mxGeometry x="406" y="1979" width="137" height="80" as="geometry" />
        </mxCell>
        <mxCell id="aAnmiJ6Gdb3zotKeNEK4-73" style="rounded=0;sketch=1;hachureGap=4;jiggle=2;curveFitting=1;orthogonalLoop=1;jettySize=auto;html=1;entryX=0;entryY=0;entryDx=0;entryDy=52.5;entryPerimeter=0;fontFamily=Architects Daughter;fontSource=https%3A%2F%2Ffonts.googleapis.com%2Fcss%3Ffamily%3DArchitects%2BDaughter;fontSize=16;" edge="1" parent="1" source="aAnmiJ6Gdb3zotKeNEK4-68" target="aAnmiJ6Gdb3zotKeNEK4-69">
          <mxGeometry relative="1" as="geometry" />
        </mxCell>
        <mxCell id="aAnmiJ6Gdb3zotKeNEK4-76" style="rounded=0;sketch=1;hachureGap=4;jiggle=2;curveFitting=1;orthogonalLoop=1;jettySize=auto;html=1;exitX=0;exitY=0;exitDx=117;exitDy=0;exitPerimeter=0;entryX=0.334;entryY=1.018;entryDx=0;entryDy=0;entryPerimeter=0;fontFamily=Architects Daughter;fontSource=https%3A%2F%2Ffonts.googleapis.com%2Fcss%3Ffamily%3DArchitects%2BDaughter;fontSize=16;" edge="1" parent="1" source="aAnmiJ6Gdb3zotKeNEK4-68" target="aAnmiJ6Gdb3zotKeNEK4-65">
          <mxGeometry relative="1" as="geometry" />
        </mxCell>
        <mxCell id="aAnmiJ6Gdb3zotKeNEK4-68" value="Service #3" style="shape=cube;whiteSpace=wrap;html=1;boundedLbl=1;backgroundOutline=1;darkOpacity=0.05;darkOpacity2=0.1;sketch=1;hachureGap=4;jiggle=2;curveFitting=1;fontFamily=Architects Daughter;fontSource=https%3A%2F%2Ffonts.googleapis.com%2Fcss%3Ffamily%3DArchitects%2BDaughter;fontSize=20;direction=east;flipH=1;fillColor=#dae8fc;strokeColor=#6c8ebf;" vertex="1" parent="1">
          <mxGeometry x="522" y="2107" width="137" height="80" as="geometry" />
        </mxCell>
        <mxCell id="aAnmiJ6Gdb3zotKeNEK4-69" value="DISC #2" style="shape=cylinder3;whiteSpace=wrap;html=1;boundedLbl=1;backgroundOutline=1;size=15;sketch=1;hachureGap=4;jiggle=2;curveFitting=1;fontFamily=Architects Daughter;fontSource=https%3A%2F%2Ffonts.googleapis.com%2Fcss%3Ffamily%3DArchitects%2BDaughter;fontSize=20;fillColor=#ffe6cc;strokeColor=#d79b00;" vertex="1" parent="1">
          <mxGeometry x="809" y="2027" width="98" height="80" as="geometry" />
        </mxCell>
      </root>
    </mxGraphModel>
  </diagram>
</mxfile>
